# xmcd
#
# Track frame offsets:
#	150
#	11782
#	27552
#	41835
#	58395
#	73012
#	84850
#	96872
#	112977
#	127332
#	139197
#	152505
#	167420
#	181947
#	199200
#	211842
#	227582
#	240632
#	251747
#	265920
#
# Disc length: 3723
#
# Revision: 1
# Processed by: cddbd v1.5.1PL0 Copyright (c) Steve Scherf et al.
# Submitted via: VisiTrax 2.9.5.181 - For more info visit www.synapsa.com
# Normalized: r0:DSETVAR1
#
DISCID=1d0e8914
DTITLE=Various Artist - The Perfect CD-Collection - Exclusive Country Stars From The 70's - Volume 8
DYEAR=1988
DGENRE=Country
TTITLE0=Crystal Gayle - Don't It Make My Brown Eyes Blue
TTITLE1=Alabama - Feels So Right
TTITLE2=Glen Campbell - Rhinestone Cowboy
TTITLE3=Anne Murray - You Needed Me
TTITLE4=Ronnie Milsap - (There's) No Gettin' Over Me
TTITLE5=Willie Nelson - Funny How Time Slips Away
TTITLE6=Kenny Rogers and Dottie West - Baby I'm A Want You
TTITLE7=Billie Jo Spears - Blanket On The Ground
TTITLE8=Everly Brothers - The Brand New Tennessee Waltz
TTITLE9=Wanda Jackson - Stand By Your Man
TTITLE10=Waylon Jennings - Amanda
TTITLE11=Perry Como - And I Love You So
TTITLE12=Chet Atkins - Vincent
TTITLE13=Kenny Rogers - Lady
TTITLE14=Anne Murray - A Love Song
TTITLE15=Dirt Band - An American Dream
TTITLE16=Dolly Parton - I Will Always Love You
TTITLE17=Charley Pride - Help Me Make It Through The Night
TTITLE18=Dottie West - Desperado
TTITLE19=Ronnie Milsap - (I'd Be) A Legend In My Time
EXTD=
EXTT0=
EXTT1=
EXTT2=
EXTT3=
EXTT4=
EXTT5=
EXTT6=
EXTT7=
EXTT8=
EXTT9=
EXTT10=
EXTT11=
EXTT12=
EXTT13=
EXTT14=
EXTT15=
EXTT16=
EXTT17=
EXTT18=
EXTT19=
PLAYORDER=
